<svg id="facebook" xmlns="http://www.w3.org/2000/svg" width="20" height="20" viewBox="0 0 20 20">
  <path id="Path_2" data-name="Path 2" d="M10,0A10,10,0,1,0,20,10,10.011,10.011,0,0,0,10,0Zm0,18.856A8.856,8.856,0,1,1,18.856,10,8.866,8.866,0,0,1,10,18.856Z" fill="#968593"/>
  <path id="Path_3" data-name="Path 3" d="M117.277,71.952h-1.4a2.022,2.022,0,0,0-2.084,1.949v1.477H112.48a.555.555,0,1,0,0,1.108h1.308v5.129a.594.594,0,0,0,1.185,0V76.486H117a.555.555,0,1,0,0-1.108h-2.024V73.9a.873.873,0,0,1,.9-.841h1.4a.555.555,0,1,0,0-1.108Z" transform="translate(-104.879 -67.216)" fill="#968593"/>
</svg>
