<svg xmlns="http://www.w3.org/2000/svg" width="40.21" height="63.143" viewBox="0 0 40.21 63.143">
  <g id="fund-growth" transform="translate(-54.475)">
    <path id="Path_34" data-name="Path 34" d="M124.96,49.715v-.822a5.985,5.985,0,0,0,0-11.567v-5.5a8.739,8.739,0,0,1,2.544,1.734,1.579,1.579,0,0,0,2.267-2.2,11.051,11.051,0,0,0-4.81-2.856V27.7a1.579,1.579,0,1,0-3.157,0v.853a5.984,5.984,0,0,0,0,11.507v5.358a10.515,10.515,0,0,1-2.474-2.043,1.579,1.579,0,1,0-2.4,2.046,11.908,11.908,0,0,0,4.879,3.417v.88a1.579,1.579,0,0,0,3.157,0Zm1.289-6.606a2.826,2.826,0,0,1-1.289,2.371V40.739A2.825,2.825,0,0,1,126.25,43.109ZM120.622,34.3a2.826,2.826,0,0,1,1.181-2.3V36.6A2.825,2.825,0,0,1,120.622,34.3Z" transform="translate(-49.007 -20.62)" fill="#fff"/>
    <path id="Path_35" data-name="Path 35" d="M72.8,52.951v8.613a1.579,1.579,0,0,0,3.157,0V59.746H86.314a8.382,8.382,0,0,0,8.371-8.372V44.579A1.579,1.579,0,0,0,93.106,43H86.313a8.382,8.382,0,0,0-8.372,8.373v5.216H75.953v-20.7a17.945,17.945,0,1,0-3.158,0v13.9H71.218V44.579a8.382,8.382,0,0,0-8.371-8.373H56.054a1.579,1.579,0,0,0-1.579,1.579v6.794a8.382,8.382,0,0,0,8.372,8.373Zm-9.949-3.157a5.221,5.221,0,0,1-5.215-5.216V39.363h5.215a5.221,5.221,0,0,1,5.214,5.216v5.215H62.847Zm-3.26-31.811A14.787,14.787,0,1,1,74.374,32.809,14.823,14.823,0,0,1,59.587,17.983Zm31.941,33.39a5.221,5.221,0,0,1-5.214,5.215H81.1V51.372a5.221,5.221,0,0,1,5.215-5.215h5.214Z" fill="#fff"/>
  </g>
</svg>
