<svg xmlns="http://www.w3.org/2000/svg" width="342.938" height="282.835" viewBox="0 0 342.938 282.835">
  <g id="Group_34" data-name="Group 34" transform="translate(-370 -1927)" opacity="0.479">
    <g id="Group_21" data-name="Group 21" transform="translate(370 1927)">
      <circle id="Ellipse_15" data-name="Ellipse 15" cx="6.187" cy="6.187" r="6.187" transform="translate(0 0)" fill="#cb67ea"/>
      <circle id="Ellipse_15-2" data-name="Ellipse 15" cx="6.187" cy="6.187" r="6.187" transform="translate(30.051 0)" fill="#cb67ea"/>
      <circle id="Ellipse_15-3" data-name="Ellipse 15" cx="6.187" cy="6.187" r="6.187" transform="translate(60.102 0)" fill="#cb67ea"/>
      <circle id="Ellipse_15-4" data-name="Ellipse 15" cx="6.187" cy="6.187" r="6.187" transform="translate(90.154 0)" fill="#cb67ea"/>
      <circle id="Ellipse_15-5" data-name="Ellipse 15" cx="6.187" cy="6.187" r="6.187" transform="translate(120.205 0)" fill="#cb67ea"/>
      <circle id="Ellipse_15-6" data-name="Ellipse 15" cx="6.187" cy="6.187" r="6.187" transform="translate(150.256 0)" fill="#cb67ea"/>
      <circle id="Ellipse_15-7" data-name="Ellipse 15" cx="6.187" cy="6.187" r="6.187" transform="translate(180.307 0)" fill="#cb67ea"/>
      <circle id="Ellipse_15-8" data-name="Ellipse 15" cx="6.187" cy="6.187" r="6.187" transform="translate(210.359 0)" fill="#cb67ea"/>
      <circle id="Ellipse_15-9" data-name="Ellipse 15" cx="6.187" cy="6.187" r="6.187" transform="translate(240.41 0)" fill="#cb67ea"/>
      <circle id="Ellipse_15-10" data-name="Ellipse 15" cx="6.187" cy="6.187" r="6.187" transform="translate(270.461 0)" fill="#cb67ea"/>
      <circle id="Ellipse_15-11" data-name="Ellipse 15" cx="6.187" cy="6.187" r="6.187" transform="translate(300.512 0)" fill="#cb67ea"/>
      <circle id="Ellipse_15-12" data-name="Ellipse 15" cx="6.187" cy="6.187" r="6.187" transform="translate(330.564 0)" fill="#cb67ea"/>
      <circle id="Ellipse_15-13" data-name="Ellipse 15" cx="6.187" cy="6.187" r="6.187" transform="translate(0 30.051)" fill="#cb67ea"/>
      <circle id="Ellipse_15-14" data-name="Ellipse 15" cx="6.187" cy="6.187" r="6.187" transform="translate(30.051 30.051)" fill="#cb67ea"/>
      <circle id="Ellipse_15-15" data-name="Ellipse 15" cx="6.187" cy="6.187" r="6.187" transform="translate(60.102 30.051)" fill="#cb67ea"/>
      <circle id="Ellipse_15-16" data-name="Ellipse 15" cx="6.187" cy="6.187" r="6.187" transform="translate(90.154 30.051)" fill="#cb67ea"/>
      <circle id="Ellipse_15-17" data-name="Ellipse 15" cx="6.187" cy="6.187" r="6.187" transform="translate(120.205 30.051)" fill="#cb67ea"/>
      <circle id="Ellipse_15-18" data-name="Ellipse 15" cx="6.187" cy="6.187" r="6.187" transform="translate(150.256 30.051)" fill="#cb67ea"/>
      <circle id="Ellipse_15-19" data-name="Ellipse 15" cx="6.187" cy="6.187" r="6.187" transform="translate(180.307 30.051)" fill="#cb67ea"/>
      <circle id="Ellipse_15-20" data-name="Ellipse 15" cx="6.187" cy="6.187" r="6.187" transform="translate(210.359 30.051)" fill="#cb67ea"/>
      <circle id="Ellipse_15-21" data-name="Ellipse 15" cx="6.187" cy="6.187" r="6.187" transform="translate(240.41 30.051)" fill="#cb67ea"/>
      <circle id="Ellipse_15-22" data-name="Ellipse 15" cx="6.187" cy="6.187" r="6.187" transform="translate(270.461 30.051)" fill="#cb67ea"/>
      <circle id="Ellipse_15-23" data-name="Ellipse 15" cx="6.187" cy="6.187" r="6.187" transform="translate(300.512 30.051)" fill="#cb67ea"/>
      <circle id="Ellipse_15-24" data-name="Ellipse 15" cx="6.187" cy="6.187" r="6.187" transform="translate(330.564 30.051)" fill="#cb67ea"/>
      <circle id="Ellipse_15-25" data-name="Ellipse 15" cx="6.187" cy="6.187" r="6.187" transform="translate(0 60.102)" fill="#cb67ea"/>
      <circle id="Ellipse_15-26" data-name="Ellipse 15" cx="6.187" cy="6.187" r="6.187" transform="translate(30.051 60.102)" fill="#cb67ea"/>
      <circle id="Ellipse_15-27" data-name="Ellipse 15" cx="6.187" cy="6.187" r="6.187" transform="translate(60.102 60.102)" fill="#cb67ea"/>
      <circle id="Ellipse_15-28" data-name="Ellipse 15" cx="6.187" cy="6.187" r="6.187" transform="translate(90.154 60.102)" fill="#cb67ea"/>
      <circle id="Ellipse_15-29" data-name="Ellipse 15" cx="6.187" cy="6.187" r="6.187" transform="translate(120.205 60.102)" fill="#cb67ea"/>
      <circle id="Ellipse_15-30" data-name="Ellipse 15" cx="6.187" cy="6.187" r="6.187" transform="translate(150.256 60.102)" fill="#cb67ea"/>
      <circle id="Ellipse_15-31" data-name="Ellipse 15" cx="6.187" cy="6.187" r="6.187" transform="translate(180.307 60.102)" fill="#cb67ea"/>
      <circle id="Ellipse_15-32" data-name="Ellipse 15" cx="6.187" cy="6.187" r="6.187" transform="translate(210.359 60.102)" fill="#cb67ea"/>
      <circle id="Ellipse_15-33" data-name="Ellipse 15" cx="6.187" cy="6.187" r="6.187" transform="translate(240.41 60.102)" fill="#cb67ea"/>
      <circle id="Ellipse_15-34" data-name="Ellipse 15" cx="6.187" cy="6.187" r="6.187" transform="translate(270.461 60.102)" fill="#cb67ea"/>
      <circle id="Ellipse_15-35" data-name="Ellipse 15" cx="6.187" cy="6.187" r="6.187" transform="translate(300.512 60.102)" fill="#cb67ea"/>
      <circle id="Ellipse_15-36" data-name="Ellipse 15" cx="6.187" cy="6.187" r="6.187" transform="translate(330.564 60.102)" fill="#cb67ea"/>
      <circle id="Ellipse_15-37" data-name="Ellipse 15" cx="6.187" cy="6.187" r="6.187" transform="translate(0 90.154)" fill="#cb67ea"/>
      <circle id="Ellipse_15-38" data-name="Ellipse 15" cx="6.187" cy="6.187" r="6.187" transform="translate(30.051 90.154)" fill="#cb67ea"/>
      <circle id="Ellipse_15-39" data-name="Ellipse 15" cx="6.187" cy="6.187" r="6.187" transform="translate(60.102 90.154)" fill="#cb67ea"/>
      <circle id="Ellipse_15-40" data-name="Ellipse 15" cx="6.187" cy="6.187" r="6.187" transform="translate(90.154 90.154)" fill="#cb67ea"/>
      <circle id="Ellipse_15-41" data-name="Ellipse 15" cx="6.187" cy="6.187" r="6.187" transform="translate(120.205 90.154)" fill="#cb67ea"/>
      <circle id="Ellipse_15-42" data-name="Ellipse 15" cx="6.187" cy="6.187" r="6.187" transform="translate(150.256 90.154)" fill="#cb67ea"/>
      <circle id="Ellipse_15-43" data-name="Ellipse 15" cx="6.187" cy="6.187" r="6.187" transform="translate(180.307 90.154)" fill="#cb67ea"/>
      <circle id="Ellipse_15-44" data-name="Ellipse 15" cx="6.187" cy="6.187" r="6.187" transform="translate(210.359 90.154)" fill="#cb67ea"/>
      <circle id="Ellipse_15-45" data-name="Ellipse 15" cx="6.187" cy="6.187" r="6.187" transform="translate(240.41 90.154)" fill="#cb67ea"/>
      <circle id="Ellipse_15-46" data-name="Ellipse 15" cx="6.187" cy="6.187" r="6.187" transform="translate(270.461 90.154)" fill="#cb67ea"/>
      <circle id="Ellipse_15-47" data-name="Ellipse 15" cx="6.187" cy="6.187" r="6.187" transform="translate(300.512 90.154)" fill="#cb67ea"/>
      <circle id="Ellipse_15-48" data-name="Ellipse 15" cx="6.187" cy="6.187" r="6.187" transform="translate(330.564 90.154)" fill="#cb67ea"/>
      <circle id="Ellipse_15-49" data-name="Ellipse 15" cx="6.187" cy="6.187" r="6.187" transform="translate(0 120.205)" fill="#cb67ea"/>
      <circle id="Ellipse_15-50" data-name="Ellipse 15" cx="6.187" cy="6.187" r="6.187" transform="translate(30.051 120.205)" fill="#cb67ea"/>
      <circle id="Ellipse_15-51" data-name="Ellipse 15" cx="6.187" cy="6.187" r="6.187" transform="translate(60.102 120.205)" fill="#cb67ea"/>
      <circle id="Ellipse_15-52" data-name="Ellipse 15" cx="6.187" cy="6.187" r="6.187" transform="translate(90.154 120.205)" fill="#cb67ea"/>
      <circle id="Ellipse_15-53" data-name="Ellipse 15" cx="6.187" cy="6.187" r="6.187" transform="translate(120.205 120.205)" fill="#cb67ea"/>
      <circle id="Ellipse_15-54" data-name="Ellipse 15" cx="6.187" cy="6.187" r="6.187" transform="translate(150.256 120.205)" fill="#cb67ea"/>
      <circle id="Ellipse_15-55" data-name="Ellipse 15" cx="6.187" cy="6.187" r="6.187" transform="translate(180.307 120.205)" fill="#cb67ea"/>
      <circle id="Ellipse_15-56" data-name="Ellipse 15" cx="6.187" cy="6.187" r="6.187" transform="translate(210.359 120.205)" fill="#cb67ea"/>
      <circle id="Ellipse_15-57" data-name="Ellipse 15" cx="6.187" cy="6.187" r="6.187" transform="translate(240.41 120.205)" fill="#cb67ea"/>
      <circle id="Ellipse_15-58" data-name="Ellipse 15" cx="6.187" cy="6.187" r="6.187" transform="translate(270.461 120.205)" fill="#cb67ea"/>
      <circle id="Ellipse_15-59" data-name="Ellipse 15" cx="6.187" cy="6.187" r="6.187" transform="translate(300.512 120.205)" fill="#cb67ea"/>
      <circle id="Ellipse_15-60" data-name="Ellipse 15" cx="6.187" cy="6.187" r="6.187" transform="translate(330.564 120.205)" fill="#cb67ea"/>
      <circle id="Ellipse_15-61" data-name="Ellipse 15" cx="6.187" cy="6.187" r="6.187" transform="translate(0 150.256)" fill="#cb67ea"/>
      <circle id="Ellipse_15-62" data-name="Ellipse 15" cx="6.187" cy="6.187" r="6.187" transform="translate(30.051 150.256)" fill="#cb67ea"/>
      <circle id="Ellipse_15-63" data-name="Ellipse 15" cx="6.187" cy="6.187" r="6.187" transform="translate(60.102 150.256)" fill="#cb67ea"/>
      <circle id="Ellipse_15-64" data-name="Ellipse 15" cx="6.187" cy="6.187" r="6.187" transform="translate(90.154 150.256)" fill="#cb67ea"/>
      <circle id="Ellipse_15-65" data-name="Ellipse 15" cx="6.187" cy="6.187" r="6.187" transform="translate(120.205 150.256)" fill="#cb67ea"/>
      <circle id="Ellipse_15-66" data-name="Ellipse 15" cx="6.187" cy="6.187" r="6.187" transform="translate(150.256 150.256)" fill="#cb67ea"/>
      <circle id="Ellipse_15-67" data-name="Ellipse 15" cx="6.187" cy="6.187" r="6.187" transform="translate(180.307 150.256)" fill="#cb67ea"/>
      <circle id="Ellipse_15-68" data-name="Ellipse 15" cx="6.187" cy="6.187" r="6.187" transform="translate(210.359 150.256)" fill="#cb67ea"/>
      <circle id="Ellipse_15-69" data-name="Ellipse 15" cx="6.187" cy="6.187" r="6.187" transform="translate(240.41 150.256)" fill="#cb67ea"/>
      <circle id="Ellipse_15-70" data-name="Ellipse 15" cx="6.187" cy="6.187" r="6.187" transform="translate(270.461 150.256)" fill="#cb67ea"/>
      <circle id="Ellipse_15-71" data-name="Ellipse 15" cx="6.187" cy="6.187" r="6.187" transform="translate(300.512 150.256)" fill="#cb67ea"/>
      <circle id="Ellipse_15-72" data-name="Ellipse 15" cx="6.187" cy="6.187" r="6.187" transform="translate(330.564 150.256)" fill="#cb67ea"/>
      <circle id="Ellipse_15-73" data-name="Ellipse 15" cx="6.187" cy="6.187" r="6.187" transform="translate(0 180.307)" fill="#cb67ea"/>
      <circle id="Ellipse_15-74" data-name="Ellipse 15" cx="6.187" cy="6.187" r="6.187" transform="translate(30.051 180.307)" fill="#cb67ea"/>
      <circle id="Ellipse_15-75" data-name="Ellipse 15" cx="6.187" cy="6.187" r="6.187" transform="translate(60.102 180.307)" fill="#cb67ea"/>
      <circle id="Ellipse_15-76" data-name="Ellipse 15" cx="6.187" cy="6.187" r="6.187" transform="translate(90.154 180.307)" fill="#cb67ea"/>
      <circle id="Ellipse_15-77" data-name="Ellipse 15" cx="6.187" cy="6.187" r="6.187" transform="translate(120.205 180.307)" fill="#cb67ea"/>
      <circle id="Ellipse_15-78" data-name="Ellipse 15" cx="6.187" cy="6.187" r="6.187" transform="translate(150.256 180.307)" fill="#cb67ea"/>
      <circle id="Ellipse_15-79" data-name="Ellipse 15" cx="6.187" cy="6.187" r="6.187" transform="translate(180.307 180.307)" fill="#cb67ea"/>
      <circle id="Ellipse_15-80" data-name="Ellipse 15" cx="6.187" cy="6.187" r="6.187" transform="translate(210.359 180.307)" fill="#cb67ea"/>
      <circle id="Ellipse_15-81" data-name="Ellipse 15" cx="6.187" cy="6.187" r="6.187" transform="translate(240.41 180.307)" fill="#cb67ea"/>
      <circle id="Ellipse_15-82" data-name="Ellipse 15" cx="6.187" cy="6.187" r="6.187" transform="translate(270.461 180.307)" fill="#cb67ea"/>
      <circle id="Ellipse_15-83" data-name="Ellipse 15" cx="6.187" cy="6.187" r="6.187" transform="translate(300.512 180.307)" fill="#cb67ea"/>
      <circle id="Ellipse_15-84" data-name="Ellipse 15" cx="6.187" cy="6.187" r="6.187" transform="translate(330.564 180.307)" fill="#cb67ea"/>
      <circle id="Ellipse_15-85" data-name="Ellipse 15" cx="6.187" cy="6.187" r="6.187" transform="translate(0 210.359)" fill="#cb67ea"/>
      <circle id="Ellipse_15-86" data-name="Ellipse 15" cx="6.187" cy="6.187" r="6.187" transform="translate(30.051 210.359)" fill="#cb67ea"/>
      <circle id="Ellipse_15-87" data-name="Ellipse 15" cx="6.187" cy="6.187" r="6.187" transform="translate(60.102 210.359)" fill="#cb67ea"/>
      <circle id="Ellipse_15-88" data-name="Ellipse 15" cx="6.187" cy="6.187" r="6.187" transform="translate(90.154 210.359)" fill="#cb67ea"/>
      <circle id="Ellipse_15-89" data-name="Ellipse 15" cx="6.187" cy="6.187" r="6.187" transform="translate(120.205 210.359)" fill="#cb67ea"/>
      <circle id="Ellipse_15-90" data-name="Ellipse 15" cx="6.187" cy="6.187" r="6.187" transform="translate(150.256 210.359)" fill="#cb67ea"/>
      <circle id="Ellipse_15-91" data-name="Ellipse 15" cx="6.187" cy="6.187" r="6.187" transform="translate(180.307 210.359)" fill="#cb67ea"/>
      <circle id="Ellipse_15-92" data-name="Ellipse 15" cx="6.187" cy="6.187" r="6.187" transform="translate(210.359 210.359)" fill="#cb67ea"/>
      <circle id="Ellipse_15-93" data-name="Ellipse 15" cx="6.187" cy="6.187" r="6.187" transform="translate(240.41 210.359)" fill="#cb67ea"/>
      <circle id="Ellipse_15-94" data-name="Ellipse 15" cx="6.187" cy="6.187" r="6.187" transform="translate(270.461 210.359)" fill="#cb67ea"/>
      <circle id="Ellipse_15-95" data-name="Ellipse 15" cx="6.187" cy="6.187" r="6.187" transform="translate(300.512 210.359)" fill="#cb67ea"/>
      <circle id="Ellipse_15-96" data-name="Ellipse 15" cx="6.187" cy="6.187" r="6.187" transform="translate(330.564 210.359)" fill="#cb67ea"/>
      <circle id="Ellipse_15-97" data-name="Ellipse 15" cx="6.187" cy="6.187" r="6.187" transform="translate(0 240.41)" fill="#cb67ea"/>
      <circle id="Ellipse_15-98" data-name="Ellipse 15" cx="6.187" cy="6.187" r="6.187" transform="translate(30.051 240.41)" fill="#cb67ea"/>
      <circle id="Ellipse_15-99" data-name="Ellipse 15" cx="6.187" cy="6.187" r="6.187" transform="translate(60.102 240.41)" fill="#cb67ea"/>
      <circle id="Ellipse_15-100" data-name="Ellipse 15" cx="6.187" cy="6.187" r="6.187" transform="translate(90.154 240.41)" fill="#cb67ea"/>
      <circle id="Ellipse_15-101" data-name="Ellipse 15" cx="6.187" cy="6.187" r="6.187" transform="translate(120.205 240.41)" fill="#cb67ea"/>
      <circle id="Ellipse_15-102" data-name="Ellipse 15" cx="6.187" cy="6.187" r="6.187" transform="translate(150.256 240.41)" fill="#cb67ea"/>
      <circle id="Ellipse_15-103" data-name="Ellipse 15" cx="6.187" cy="6.187" r="6.187" transform="translate(180.307 240.41)" fill="#cb67ea"/>
      <circle id="Ellipse_15-104" data-name="Ellipse 15" cx="6.187" cy="6.187" r="6.187" transform="translate(210.359 240.41)" fill="#cb67ea"/>
      <circle id="Ellipse_15-105" data-name="Ellipse 15" cx="6.187" cy="6.187" r="6.187" transform="translate(240.41 240.41)" fill="#cb67ea"/>
      <circle id="Ellipse_15-106" data-name="Ellipse 15" cx="6.187" cy="6.187" r="6.187" transform="translate(270.461 240.41)" fill="#cb67ea"/>
      <circle id="Ellipse_15-107" data-name="Ellipse 15" cx="6.187" cy="6.187" r="6.187" transform="translate(300.512 240.41)" fill="#cb67ea"/>
      <circle id="Ellipse_15-108" data-name="Ellipse 15" cx="6.187" cy="6.187" r="6.187" transform="translate(330.564 240.41)" fill="#cb67ea"/>
      <circle id="Ellipse_15-109" data-name="Ellipse 15" cx="6.187" cy="6.187" r="6.187" transform="translate(0 270.461)" fill="#cb67ea"/>
      <circle id="Ellipse_15-110" data-name="Ellipse 15" cx="6.187" cy="6.187" r="6.187" transform="translate(30.051 270.461)" fill="#cb67ea"/>
      <circle id="Ellipse_15-111" data-name="Ellipse 15" cx="6.187" cy="6.187" r="6.187" transform="translate(60.102 270.461)" fill="#cb67ea"/>
      <circle id="Ellipse_15-112" data-name="Ellipse 15" cx="6.187" cy="6.187" r="6.187" transform="translate(90.154 270.461)" fill="#cb67ea"/>
      <circle id="Ellipse_15-113" data-name="Ellipse 15" cx="6.187" cy="6.187" r="6.187" transform="translate(120.205 270.461)" fill="#cb67ea"/>
      <circle id="Ellipse_15-114" data-name="Ellipse 15" cx="6.187" cy="6.187" r="6.187" transform="translate(150.256 270.461)" fill="#cb67ea"/>
      <circle id="Ellipse_15-115" data-name="Ellipse 15" cx="6.187" cy="6.187" r="6.187" transform="translate(180.307 270.461)" fill="#cb67ea"/>
      <circle id="Ellipse_15-116" data-name="Ellipse 15" cx="6.187" cy="6.187" r="6.187" transform="translate(210.359 270.461)" fill="#cb67ea"/>
      <circle id="Ellipse_15-117" data-name="Ellipse 15" cx="6.187" cy="6.187" r="6.187" transform="translate(240.41 270.461)" fill="#cb67ea"/>
      <circle id="Ellipse_15-118" data-name="Ellipse 15" cx="6.187" cy="6.187" r="6.187" transform="translate(270.461 270.461)" fill="#cb67ea"/>
      <circle id="Ellipse_15-119" data-name="Ellipse 15" cx="6.187" cy="6.187" r="6.187" transform="translate(300.512 270.461)" fill="#cb67ea"/>
      <circle id="Ellipse_15-120" data-name="Ellipse 15" cx="6.187" cy="6.187" r="6.187" transform="translate(330.564 270.461)" fill="#cb67ea"/>
    </g>
  </g>
</svg>
