<svg xmlns="http://www.w3.org/2000/svg" width="261.451" height="215.63" viewBox="0 0 261.451 215.63">
  <g id="Group_36" data-name="Group 36" transform="translate(-370 -1927)">
    <g id="Group_21" data-name="Group 21" transform="translate(370 1927)">
      <circle id="Ellipse_15" data-name="Ellipse 15" cx="4.717" cy="4.717" r="4.717" transform="translate(0 0)" fill="#ffcbdd"/>
      <circle id="Ellipse_15-2" data-name="Ellipse 15" cx="4.717" cy="4.717" r="4.717" transform="translate(22.911 0)" fill="#ffcbdd"/>
      <circle id="Ellipse_15-3" data-name="Ellipse 15" cx="4.717" cy="4.717" r="4.717" transform="translate(45.821 0)" fill="#ffcbdd"/>
      <circle id="Ellipse_15-4" data-name="Ellipse 15" cx="4.717" cy="4.717" r="4.717" transform="translate(68.732 0)" fill="#ffcbdd"/>
      <circle id="Ellipse_15-5" data-name="Ellipse 15" cx="4.717" cy="4.717" r="4.717" transform="translate(91.643 0)" fill="#ffcbdd"/>
      <circle id="Ellipse_15-6" data-name="Ellipse 15" cx="4.717" cy="4.717" r="4.717" transform="translate(114.553 0)" fill="#ffcbdd"/>
      <circle id="Ellipse_15-7" data-name="Ellipse 15" cx="4.717" cy="4.717" r="4.717" transform="translate(137.464 0)" fill="#ffcbdd"/>
      <circle id="Ellipse_15-8" data-name="Ellipse 15" cx="4.717" cy="4.717" r="4.717" transform="translate(160.375 0)" fill="#ffcbdd"/>
      <circle id="Ellipse_15-9" data-name="Ellipse 15" cx="4.717" cy="4.717" r="4.717" transform="translate(183.286 0)" fill="#ffcbdd"/>
      <circle id="Ellipse_15-10" data-name="Ellipse 15" cx="4.717" cy="4.717" r="4.717" transform="translate(206.196 0)" fill="#ffcbdd"/>
      <circle id="Ellipse_15-11" data-name="Ellipse 15" cx="4.717" cy="4.717" r="4.717" transform="translate(229.107 0)" fill="#ffcbdd"/>
      <circle id="Ellipse_15-12" data-name="Ellipse 15" cx="4.717" cy="4.717" r="4.717" transform="translate(252.018 0)" fill="#ffcbdd"/>
      <circle id="Ellipse_15-13" data-name="Ellipse 15" cx="4.717" cy="4.717" r="4.717" transform="translate(0 22.911)" fill="#ffcbdd"/>
      <circle id="Ellipse_15-14" data-name="Ellipse 15" cx="4.717" cy="4.717" r="4.717" transform="translate(22.911 22.911)" fill="#ffcbdd"/>
      <circle id="Ellipse_15-15" data-name="Ellipse 15" cx="4.717" cy="4.717" r="4.717" transform="translate(45.821 22.911)" fill="#ffcbdd"/>
      <circle id="Ellipse_15-16" data-name="Ellipse 15" cx="4.717" cy="4.717" r="4.717" transform="translate(68.732 22.911)" fill="#ffcbdd"/>
      <circle id="Ellipse_15-17" data-name="Ellipse 15" cx="4.717" cy="4.717" r="4.717" transform="translate(91.643 22.911)" fill="#ffcbdd"/>
      <circle id="Ellipse_15-18" data-name="Ellipse 15" cx="4.717" cy="4.717" r="4.717" transform="translate(114.553 22.911)" fill="#ffcbdd"/>
      <circle id="Ellipse_15-19" data-name="Ellipse 15" cx="4.717" cy="4.717" r="4.717" transform="translate(137.464 22.911)" fill="#ffcbdd"/>
      <circle id="Ellipse_15-20" data-name="Ellipse 15" cx="4.717" cy="4.717" r="4.717" transform="translate(160.375 22.911)" fill="#ffcbdd"/>
      <circle id="Ellipse_15-21" data-name="Ellipse 15" cx="4.717" cy="4.717" r="4.717" transform="translate(183.286 22.911)" fill="#ffcbdd"/>
      <circle id="Ellipse_15-22" data-name="Ellipse 15" cx="4.717" cy="4.717" r="4.717" transform="translate(206.196 22.911)" fill="#ffcbdd"/>
      <circle id="Ellipse_15-23" data-name="Ellipse 15" cx="4.717" cy="4.717" r="4.717" transform="translate(229.107 22.911)" fill="#ffcbdd"/>
      <circle id="Ellipse_15-24" data-name="Ellipse 15" cx="4.717" cy="4.717" r="4.717" transform="translate(252.018 22.911)" fill="#ffcbdd"/>
      <circle id="Ellipse_15-25" data-name="Ellipse 15" cx="4.717" cy="4.717" r="4.717" transform="translate(0 45.821)" fill="#ffcbdd"/>
      <circle id="Ellipse_15-26" data-name="Ellipse 15" cx="4.717" cy="4.717" r="4.717" transform="translate(22.911 45.821)" fill="#ffcbdd"/>
      <circle id="Ellipse_15-27" data-name="Ellipse 15" cx="4.717" cy="4.717" r="4.717" transform="translate(45.821 45.821)" fill="#ffcbdd"/>
      <circle id="Ellipse_15-28" data-name="Ellipse 15" cx="4.717" cy="4.717" r="4.717" transform="translate(68.732 45.821)" fill="#ffcbdd"/>
      <circle id="Ellipse_15-29" data-name="Ellipse 15" cx="4.717" cy="4.717" r="4.717" transform="translate(91.643 45.821)" fill="#ffcbdd"/>
      <circle id="Ellipse_15-30" data-name="Ellipse 15" cx="4.717" cy="4.717" r="4.717" transform="translate(114.553 45.821)" fill="#ffcbdd"/>
      <circle id="Ellipse_15-31" data-name="Ellipse 15" cx="4.717" cy="4.717" r="4.717" transform="translate(137.464 45.821)" fill="#ffcbdd"/>
      <circle id="Ellipse_15-32" data-name="Ellipse 15" cx="4.717" cy="4.717" r="4.717" transform="translate(160.375 45.821)" fill="#ffcbdd"/>
      <circle id="Ellipse_15-33" data-name="Ellipse 15" cx="4.717" cy="4.717" r="4.717" transform="translate(183.286 45.821)" fill="#ffcbdd"/>
      <circle id="Ellipse_15-34" data-name="Ellipse 15" cx="4.717" cy="4.717" r="4.717" transform="translate(206.196 45.821)" fill="#ffcbdd"/>
      <circle id="Ellipse_15-35" data-name="Ellipse 15" cx="4.717" cy="4.717" r="4.717" transform="translate(229.107 45.821)" fill="#ffcbdd"/>
      <circle id="Ellipse_15-36" data-name="Ellipse 15" cx="4.717" cy="4.717" r="4.717" transform="translate(252.018 45.821)" fill="#ffcbdd"/>
      <circle id="Ellipse_15-37" data-name="Ellipse 15" cx="4.717" cy="4.717" r="4.717" transform="translate(0 68.732)" fill="#ffcbdd"/>
      <circle id="Ellipse_15-38" data-name="Ellipse 15" cx="4.717" cy="4.717" r="4.717" transform="translate(22.911 68.732)" fill="#ffcbdd"/>
      <circle id="Ellipse_15-39" data-name="Ellipse 15" cx="4.717" cy="4.717" r="4.717" transform="translate(45.821 68.732)" fill="#ffcbdd"/>
      <circle id="Ellipse_15-40" data-name="Ellipse 15" cx="4.717" cy="4.717" r="4.717" transform="translate(68.732 68.732)" fill="#ffcbdd"/>
      <circle id="Ellipse_15-41" data-name="Ellipse 15" cx="4.717" cy="4.717" r="4.717" transform="translate(91.643 68.732)" fill="#ffcbdd"/>
      <circle id="Ellipse_15-42" data-name="Ellipse 15" cx="4.717" cy="4.717" r="4.717" transform="translate(114.553 68.732)" fill="#ffcbdd"/>
      <circle id="Ellipse_15-43" data-name="Ellipse 15" cx="4.717" cy="4.717" r="4.717" transform="translate(137.464 68.732)" fill="#ffcbdd"/>
      <circle id="Ellipse_15-44" data-name="Ellipse 15" cx="4.717" cy="4.717" r="4.717" transform="translate(160.375 68.732)" fill="#ffcbdd"/>
      <circle id="Ellipse_15-45" data-name="Ellipse 15" cx="4.717" cy="4.717" r="4.717" transform="translate(183.286 68.732)" fill="#ffcbdd"/>
      <circle id="Ellipse_15-46" data-name="Ellipse 15" cx="4.717" cy="4.717" r="4.717" transform="translate(206.196 68.732)" fill="#ffcbdd"/>
      <circle id="Ellipse_15-47" data-name="Ellipse 15" cx="4.717" cy="4.717" r="4.717" transform="translate(229.107 68.732)" fill="#ffcbdd"/>
      <circle id="Ellipse_15-48" data-name="Ellipse 15" cx="4.717" cy="4.717" r="4.717" transform="translate(252.018 68.732)" fill="#ffcbdd"/>
      <circle id="Ellipse_15-49" data-name="Ellipse 15" cx="4.717" cy="4.717" r="4.717" transform="translate(0 91.643)" fill="#ffcbdd"/>
      <circle id="Ellipse_15-50" data-name="Ellipse 15" cx="4.717" cy="4.717" r="4.717" transform="translate(22.911 91.643)" fill="#ffcbdd"/>
      <circle id="Ellipse_15-51" data-name="Ellipse 15" cx="4.717" cy="4.717" r="4.717" transform="translate(45.821 91.643)" fill="#ffcbdd"/>
      <circle id="Ellipse_15-52" data-name="Ellipse 15" cx="4.717" cy="4.717" r="4.717" transform="translate(68.732 91.643)" fill="#ffcbdd"/>
      <circle id="Ellipse_15-53" data-name="Ellipse 15" cx="4.717" cy="4.717" r="4.717" transform="translate(91.643 91.643)" fill="#ffcbdd"/>
      <circle id="Ellipse_15-54" data-name="Ellipse 15" cx="4.717" cy="4.717" r="4.717" transform="translate(114.553 91.643)" fill="#ffcbdd"/>
      <circle id="Ellipse_15-55" data-name="Ellipse 15" cx="4.717" cy="4.717" r="4.717" transform="translate(137.464 91.643)" fill="#ffcbdd"/>
      <circle id="Ellipse_15-56" data-name="Ellipse 15" cx="4.717" cy="4.717" r="4.717" transform="translate(160.375 91.643)" fill="#ffcbdd"/>
      <circle id="Ellipse_15-57" data-name="Ellipse 15" cx="4.717" cy="4.717" r="4.717" transform="translate(183.286 91.643)" fill="#ffcbdd"/>
      <circle id="Ellipse_15-58" data-name="Ellipse 15" cx="4.717" cy="4.717" r="4.717" transform="translate(206.196 91.643)" fill="#ffcbdd"/>
      <circle id="Ellipse_15-59" data-name="Ellipse 15" cx="4.717" cy="4.717" r="4.717" transform="translate(229.107 91.643)" fill="#ffcbdd"/>
      <circle id="Ellipse_15-60" data-name="Ellipse 15" cx="4.717" cy="4.717" r="4.717" transform="translate(252.018 91.643)" fill="#ffcbdd"/>
      <circle id="Ellipse_15-61" data-name="Ellipse 15" cx="4.717" cy="4.717" r="4.717" transform="translate(0 114.553)" fill="#ffcbdd"/>
      <circle id="Ellipse_15-62" data-name="Ellipse 15" cx="4.717" cy="4.717" r="4.717" transform="translate(22.911 114.553)" fill="#ffcbdd"/>
      <circle id="Ellipse_15-63" data-name="Ellipse 15" cx="4.717" cy="4.717" r="4.717" transform="translate(45.821 114.553)" fill="#ffcbdd"/>
      <circle id="Ellipse_15-64" data-name="Ellipse 15" cx="4.717" cy="4.717" r="4.717" transform="translate(68.732 114.553)" fill="#ffcbdd"/>
      <circle id="Ellipse_15-65" data-name="Ellipse 15" cx="4.717" cy="4.717" r="4.717" transform="translate(91.643 114.553)" fill="#ffcbdd"/>
      <circle id="Ellipse_15-66" data-name="Ellipse 15" cx="4.717" cy="4.717" r="4.717" transform="translate(114.553 114.553)" fill="#ffcbdd"/>
      <circle id="Ellipse_15-67" data-name="Ellipse 15" cx="4.717" cy="4.717" r="4.717" transform="translate(137.464 114.553)" fill="#ffcbdd"/>
      <circle id="Ellipse_15-68" data-name="Ellipse 15" cx="4.717" cy="4.717" r="4.717" transform="translate(160.375 114.553)" fill="#ffcbdd"/>
      <circle id="Ellipse_15-69" data-name="Ellipse 15" cx="4.717" cy="4.717" r="4.717" transform="translate(183.286 114.553)" fill="#ffcbdd"/>
      <circle id="Ellipse_15-70" data-name="Ellipse 15" cx="4.717" cy="4.717" r="4.717" transform="translate(206.196 114.553)" fill="#ffcbdd"/>
      <circle id="Ellipse_15-71" data-name="Ellipse 15" cx="4.717" cy="4.717" r="4.717" transform="translate(229.107 114.553)" fill="#ffcbdd"/>
      <circle id="Ellipse_15-72" data-name="Ellipse 15" cx="4.717" cy="4.717" r="4.717" transform="translate(252.018 114.553)" fill="#ffcbdd"/>
      <circle id="Ellipse_15-73" data-name="Ellipse 15" cx="4.717" cy="4.717" r="4.717" transform="translate(0 137.464)" fill="#ffcbdd"/>
      <circle id="Ellipse_15-74" data-name="Ellipse 15" cx="4.717" cy="4.717" r="4.717" transform="translate(22.911 137.464)" fill="#ffcbdd"/>
      <circle id="Ellipse_15-75" data-name="Ellipse 15" cx="4.717" cy="4.717" r="4.717" transform="translate(45.821 137.464)" fill="#ffcbdd"/>
      <circle id="Ellipse_15-76" data-name="Ellipse 15" cx="4.717" cy="4.717" r="4.717" transform="translate(68.732 137.464)" fill="#ffcbdd"/>
      <circle id="Ellipse_15-77" data-name="Ellipse 15" cx="4.717" cy="4.717" r="4.717" transform="translate(91.643 137.464)" fill="#ffcbdd"/>
      <circle id="Ellipse_15-78" data-name="Ellipse 15" cx="4.717" cy="4.717" r="4.717" transform="translate(114.553 137.464)" fill="#ffcbdd"/>
      <circle id="Ellipse_15-79" data-name="Ellipse 15" cx="4.717" cy="4.717" r="4.717" transform="translate(137.464 137.464)" fill="#ffcbdd"/>
      <circle id="Ellipse_15-80" data-name="Ellipse 15" cx="4.717" cy="4.717" r="4.717" transform="translate(160.375 137.464)" fill="#ffcbdd"/>
      <circle id="Ellipse_15-81" data-name="Ellipse 15" cx="4.717" cy="4.717" r="4.717" transform="translate(183.286 137.464)" fill="#ffcbdd"/>
      <circle id="Ellipse_15-82" data-name="Ellipse 15" cx="4.717" cy="4.717" r="4.717" transform="translate(206.196 137.464)" fill="#ffcbdd"/>
      <circle id="Ellipse_15-83" data-name="Ellipse 15" cx="4.717" cy="4.717" r="4.717" transform="translate(229.107 137.464)" fill="#ffcbdd"/>
      <circle id="Ellipse_15-84" data-name="Ellipse 15" cx="4.717" cy="4.717" r="4.717" transform="translate(252.018 137.464)" fill="#ffcbdd"/>
      <circle id="Ellipse_15-85" data-name="Ellipse 15" cx="4.717" cy="4.717" r="4.717" transform="translate(0 160.375)" fill="#ffcbdd"/>
      <circle id="Ellipse_15-86" data-name="Ellipse 15" cx="4.717" cy="4.717" r="4.717" transform="translate(22.911 160.375)" fill="#ffcbdd"/>
      <circle id="Ellipse_15-87" data-name="Ellipse 15" cx="4.717" cy="4.717" r="4.717" transform="translate(45.821 160.375)" fill="#ffcbdd"/>
      <circle id="Ellipse_15-88" data-name="Ellipse 15" cx="4.717" cy="4.717" r="4.717" transform="translate(68.732 160.375)" fill="#ffcbdd"/>
      <circle id="Ellipse_15-89" data-name="Ellipse 15" cx="4.717" cy="4.717" r="4.717" transform="translate(91.643 160.375)" fill="#ffcbdd"/>
      <circle id="Ellipse_15-90" data-name="Ellipse 15" cx="4.717" cy="4.717" r="4.717" transform="translate(114.553 160.375)" fill="#ffcbdd"/>
      <circle id="Ellipse_15-91" data-name="Ellipse 15" cx="4.717" cy="4.717" r="4.717" transform="translate(137.464 160.375)" fill="#ffcbdd"/>
      <circle id="Ellipse_15-92" data-name="Ellipse 15" cx="4.717" cy="4.717" r="4.717" transform="translate(160.375 160.375)" fill="#ffcbdd"/>
      <circle id="Ellipse_15-93" data-name="Ellipse 15" cx="4.717" cy="4.717" r="4.717" transform="translate(183.286 160.375)" fill="#ffcbdd"/>
      <circle id="Ellipse_15-94" data-name="Ellipse 15" cx="4.717" cy="4.717" r="4.717" transform="translate(206.196 160.375)" fill="#ffcbdd"/>
      <circle id="Ellipse_15-95" data-name="Ellipse 15" cx="4.717" cy="4.717" r="4.717" transform="translate(229.107 160.375)" fill="#ffcbdd"/>
      <circle id="Ellipse_15-96" data-name="Ellipse 15" cx="4.717" cy="4.717" r="4.717" transform="translate(252.018 160.375)" fill="#ffcbdd"/>
      <circle id="Ellipse_15-97" data-name="Ellipse 15" cx="4.717" cy="4.717" r="4.717" transform="translate(0 183.286)" fill="#ffcbdd"/>
      <circle id="Ellipse_15-98" data-name="Ellipse 15" cx="4.717" cy="4.717" r="4.717" transform="translate(22.911 183.286)" fill="#ffcbdd"/>
      <circle id="Ellipse_15-99" data-name="Ellipse 15" cx="4.717" cy="4.717" r="4.717" transform="translate(45.821 183.286)" fill="#ffcbdd"/>
      <circle id="Ellipse_15-100" data-name="Ellipse 15" cx="4.717" cy="4.717" r="4.717" transform="translate(68.732 183.286)" fill="#ffcbdd"/>
      <circle id="Ellipse_15-101" data-name="Ellipse 15" cx="4.717" cy="4.717" r="4.717" transform="translate(91.643 183.286)" fill="#ffcbdd"/>
      <circle id="Ellipse_15-102" data-name="Ellipse 15" cx="4.717" cy="4.717" r="4.717" transform="translate(114.553 183.286)" fill="#ffcbdd"/>
      <circle id="Ellipse_15-103" data-name="Ellipse 15" cx="4.717" cy="4.717" r="4.717" transform="translate(137.464 183.286)" fill="#ffcbdd"/>
      <circle id="Ellipse_15-104" data-name="Ellipse 15" cx="4.717" cy="4.717" r="4.717" transform="translate(160.375 183.286)" fill="#ffcbdd"/>
      <circle id="Ellipse_15-105" data-name="Ellipse 15" cx="4.717" cy="4.717" r="4.717" transform="translate(183.286 183.286)" fill="#ffcbdd"/>
      <circle id="Ellipse_15-106" data-name="Ellipse 15" cx="4.717" cy="4.717" r="4.717" transform="translate(206.196 183.286)" fill="#ffcbdd"/>
      <circle id="Ellipse_15-107" data-name="Ellipse 15" cx="4.717" cy="4.717" r="4.717" transform="translate(229.107 183.286)" fill="#ffcbdd"/>
      <circle id="Ellipse_15-108" data-name="Ellipse 15" cx="4.717" cy="4.717" r="4.717" transform="translate(252.018 183.286)" fill="#ffcbdd"/>
      <circle id="Ellipse_15-109" data-name="Ellipse 15" cx="4.717" cy="4.717" r="4.717" transform="translate(0 206.196)" fill="#ffcbdd"/>
      <circle id="Ellipse_15-110" data-name="Ellipse 15" cx="4.717" cy="4.717" r="4.717" transform="translate(22.911 206.196)" fill="#ffcbdd"/>
      <circle id="Ellipse_15-111" data-name="Ellipse 15" cx="4.717" cy="4.717" r="4.717" transform="translate(45.821 206.196)" fill="#ffcbdd"/>
      <circle id="Ellipse_15-112" data-name="Ellipse 15" cx="4.717" cy="4.717" r="4.717" transform="translate(68.732 206.196)" fill="#ffcbdd"/>
      <circle id="Ellipse_15-113" data-name="Ellipse 15" cx="4.717" cy="4.717" r="4.717" transform="translate(91.643 206.196)" fill="#ffcbdd"/>
      <circle id="Ellipse_15-114" data-name="Ellipse 15" cx="4.717" cy="4.717" r="4.717" transform="translate(114.553 206.196)" fill="#ffcbdd"/>
      <circle id="Ellipse_15-115" data-name="Ellipse 15" cx="4.717" cy="4.717" r="4.717" transform="translate(137.464 206.196)" fill="#ffcbdd"/>
      <circle id="Ellipse_15-116" data-name="Ellipse 15" cx="4.717" cy="4.717" r="4.717" transform="translate(160.375 206.196)" fill="#ffcbdd"/>
      <circle id="Ellipse_15-117" data-name="Ellipse 15" cx="4.717" cy="4.717" r="4.717" transform="translate(183.286 206.196)" fill="#ffcbdd"/>
      <circle id="Ellipse_15-118" data-name="Ellipse 15" cx="4.717" cy="4.717" r="4.717" transform="translate(206.196 206.196)" fill="#ffcbdd"/>
      <circle id="Ellipse_15-119" data-name="Ellipse 15" cx="4.717" cy="4.717" r="4.717" transform="translate(229.107 206.196)" fill="#ffcbdd"/>
      <circle id="Ellipse_15-120" data-name="Ellipse 15" cx="4.717" cy="4.717" r="4.717" transform="translate(252.018 206.196)" fill="#ffcbdd"/>
    </g>
  </g>
</svg>
