<svg xmlns="http://www.w3.org/2000/svg" width="20.5" height="20.5" viewBox="0 0 20.5 20.5">
  <path id="instagram" d="M10.2,20H10c-1.568,0-3.016-.036-4.425-.122a5.915,5.915,0,0,1-3.41-1.291A5.473,5.473,0,0,1,.324,15.62a13.156,13.156,0,0,1-.3-3.141C.013,11.748,0,10.883,0,10S.013,8.255.023,7.524a13.157,13.157,0,0,1,.3-3.141A5.473,5.473,0,0,1,2.163,1.414,5.915,5.915,0,0,1,5.573.123C6.982.038,8.431,0,10,0s3.016.036,4.425.122a5.915,5.915,0,0,1,3.41,1.291,5.472,5.472,0,0,1,1.839,2.969,13.156,13.156,0,0,1,.3,3.141c.01.73.021,1.6.023,2.475v0c0,.88-.013,1.745-.023,2.475a13.149,13.149,0,0,1-.3,3.141,5.472,5.472,0,0,1-1.839,2.969,5.915,5.915,0,0,1-3.41,1.291C13.078,19.961,11.692,20,10.2,20ZM10,18.439c1.542,0,2.958-.035,4.334-.119a4.3,4.3,0,0,0,2.517-.942,3.945,3.945,0,0,0,1.312-2.144,11.969,11.969,0,0,0,.253-2.776c.01-.725.02-1.584.022-2.456s-.013-1.73-.022-2.456a11.971,11.971,0,0,0-.253-2.777,3.945,3.945,0,0,0-1.312-2.144,4.305,4.305,0,0,0-2.517-.942C12.956,1.6,11.54,1.561,10,1.564s-2.958.035-4.334.119a4.305,4.305,0,0,0-2.517.942A3.945,3.945,0,0,0,1.838,4.769a11.97,11.97,0,0,0-.253,2.777c-.01.726-.02,1.585-.022,2.457s.013,1.728.022,2.454a11.969,11.969,0,0,0,.253,2.776,3.945,3.945,0,0,0,1.312,2.144,4.305,4.305,0,0,0,2.517.942C7.044,18.4,8.46,18.442,10,18.439Zm-.037-3.554A4.883,4.883,0,1,1,14.844,10,4.889,4.889,0,0,1,9.961,14.884Zm0-8.2A3.32,3.32,0,1,0,13.281,10,3.324,3.324,0,0,0,9.961,6.681Zm5.43-3.125a1.172,1.172,0,1,0,1.172,1.172A1.172,1.172,0,0,0,15.391,3.556Zm0,0" transform="translate(0.25 0.249)" fill="#968593" stroke="#fff" stroke-width="0.5"/>
</svg>
