<svg id="linkedin" xmlns="http://www.w3.org/2000/svg" width="21.839" height="21.839" viewBox="0 0 21.839 21.839">
  <path id="Path_29" data-name="Path 29" d="M10.92,0a10.92,10.92,0,1,0,10.92,10.92A10.932,10.932,0,0,0,10.92,0Zm0,20.59a9.67,9.67,0,1,1,9.67-9.67A9.681,9.681,0,0,1,10.92,20.59Z" transform="translate(0 0)" fill="#706c81"/>
  <path id="Path_30" data-name="Path 30" d="M103.951,121.119a.625.625,0,0,0-.625.625v5.165a.625.625,0,0,0,1.249,0v-5.165A.625.625,0,0,0,103.951,121.119Z" transform="translate(-96.154 -112.712)" fill="#706c81"/>
  <path id="Path_31" data-name="Path 31" d="M103.951,79.116a.626.626,0,1,0,.441.183A.626.626,0,0,0,103.951,79.116Z" transform="translate(-96.154 -73.625)" fill="#706c81"/>
  <path id="Path_32" data-name="Path 32" d="M149.828,121.6a2.984,2.984,0,0,0-1.753.567v-.428a.625.625,0,1,0-1.249,0v5.165a.625.625,0,0,0,1.249,0v-2.3a1.753,1.753,0,1,1,3.505,0v2.441a.625.625,0,0,0,1.249,0v-2.441A3.005,3.005,0,0,0,149.828,121.6Z" transform="translate(-136.635 -112.712)" fill="#706c81"/>
</svg>
