<svg id="linkedin" xmlns="http://www.w3.org/2000/svg" width="19.92" height="19.92" viewBox="0 0 19.92 19.92">
  <path id="Path_29" data-name="Path 29" d="M9.96,0a9.96,9.96,0,1,0,9.96,9.96A9.971,9.971,0,0,0,9.96,0Zm0,18.781A8.821,8.821,0,1,1,18.781,9.96,8.831,8.831,0,0,1,9.96,18.781Z" transform="translate(0 0)" fill="#968593"/>
  <path id="Path_30" data-name="Path 30" d="M103.9,121.119a.57.57,0,0,0-.57.57V126.4a.57.57,0,1,0,1.14,0v-4.711A.57.57,0,0,0,103.9,121.119Z" transform="translate(-96.784 -113.451)" fill="#968593"/>
  <path id="Path_31" data-name="Path 31" d="M103.9,79.116a.571.571,0,1,0,.4.167A.571.571,0,0,0,103.9,79.116Z" transform="translate(-96.784 -74.107)" fill="#968593"/>
  <path id="Path_32" data-name="Path 32" d="M149.564,121.562a2.722,2.722,0,0,0-1.6.517v-.391a.57.57,0,1,0-1.14,0V126.4a.57.57,0,1,0,1.14,0v-2.1a1.6,1.6,0,1,1,3.2,0v2.226a.57.57,0,0,0,1.14,0V124.3A2.741,2.741,0,0,0,149.564,121.562Z" transform="translate(-137.531 -113.451)" fill="#968593"/>
</svg>
