<svg id="twitter" xmlns="http://www.w3.org/2000/svg" width="20" height="20" viewBox="0 0 20 20">
  <path id="Path_4" data-name="Path 4" d="M10,0A10,10,0,1,0,20,10,10.011,10.011,0,0,0,10,0Zm0,18.856A8.856,8.856,0,1,1,18.856,10,8.866,8.866,0,0,1,10,18.856Z" fill="#968593"/>
  <path id="Path_5" data-name="Path 5" d="M122.264,99.174a.626.626,0,0,0,0-1.252h-3.686v-.636a.626.626,0,1,0-1.252,0v4.135A3.683,3.683,0,0,0,121,105.1h1.26a.626.626,0,0,0,0-1.252H121a2.429,2.429,0,0,1-2.426-2.426V99.174Z" transform="translate(-110.108 -90.88)" fill="#968593"/>
</svg>
